<svg height="551.74119" viewBox="0 0 860.13137 551.74119" width="860.13137" xmlns="http://www.w3.org/2000/svg"><path d="m973.93474 661.6294h-217.34835a29.859 29.859 0 0 1 -29.82583-29.8254v-342.843a29.85942 29.85942 0 0 1 29.82583-29.82582h217.34835a29.85941 29.85941 0 0 1 29.82582 29.82582v342.843a29.859 29.859 0 0 1 -29.82582 29.8254z" fill="#e6e6e6" transform="translate(-169.93432 -174.1294)"/><path d="m977.53913 276.93253h-221.36268a9.34834 9.34834 0 0 0 -9.33681 9.33676v347.31325a9.35131 9.35131 0 0 0 9.33681 9.33681h221.36268a9.34833 9.34833 0 0 0 9.33675-9.33681v-347.31325a9.34829 9.34829 0 0 0 -9.33675-9.33676z" fill="#fff" transform="translate(-169.93432 -174.1294)"/><path d="m761.899 259.13517a2.2844 2.2844 0 0 1 2.28171-2.28171h15.51565a2.28171 2.28171 0 1 1 0 4.56342h-15.5157a2.2844 2.2844 0 0 1 -2.28166-2.28171z" fill="#e6e6e6" transform="translate(-169.93432 -174.1294)"/><path d="m787.45414 259.13517a2.2844 2.2844 0 0 1 2.28171-2.28171h15.51565a2.28171 2.28171 0 1 1 0 4.56342h-15.51565a2.2844 2.2844 0 0 1 -2.28171-2.28171z" fill="#e6e6e6" transform="translate(-169.93432 -174.1294)"/><path d="m940.78528 259.13517a2.2844 2.2844 0 0 1 2.28171-2.28171h15.51565a2.28171 2.28171 0 0 1 0 4.56342h-15.51564a2.2844 2.2844 0 0 1 -2.28172-2.28171z" fill="#e6e6e6" transform="translate(-169.93432 -174.1294)"/><path d="m897.5331 635.76388c0 2.40036-.04562 4.79159-.15514 7.15547h-141.20151a9.35131 9.35131 0 0 1 -9.33681-9.33681v-174.81573a179.28922 179.28922 0 0 1 150.69346 176.99707z" fill="#f2f2f2" transform="translate(-169.93432 -174.1294)"/><rect fill="#8b5cf6" height="14.09239" rx="4.33898" width="61.33866" x="665.80402" y="192.05598"/><rect fill="#e6e6e6" height="14.09239" rx="4.33898" width="128.27749" x="632.33461" y="220.24075"/><rect fill="#e6e6e6" height="14.09239" rx="4.33898" width="128.27749" x="632.33461" y="248.42552"/><path d="m905.7277 619.18312a3.3479 3.3479 0 0 1 -2.42636-5.80273l.2294-.912q-.0453-.10953-.09115-.21892a8.99055 8.99055 0 0 0 -16.5841.06163c-2.71242 6.53275-6.16579 13.07667-7.0161 19.984a26.59733 26.59733 0 0 0 .4669 9.14736 106.63467 106.63467 0 0 1 -9.70014-44.28879 102.92258 102.92258 0 0 1 .63842-11.482q.52887-4.68811 1.46746-9.30947a107.87005 107.87005 0 0 1 21.39163-45.71811 28.70736 28.70736 0 0 0 11.93934-12.3872 21.8981 21.8981 0 0 0 1.99149-5.984c-.58122.07624-1.172.12388-1.75322.162-.18108.00948-.37163.019-.5527.0286l-.06829.00305a3.317 3.317 0 0 1 -2.72419-5.404q.37644-.46328.75335-.92609c.38118-.47646.77185-.94336 1.153-1.41975a1.65137 1.65137 0 0 0 .12387-.143c.43839-.54314.87662-1.07672 1.315-1.61986a9.5916 9.5916 0 0 0 -3.14445-3.03954c-4.39269-2.57271-10.45288-.79089-13.62593 3.18253-3.18253 3.97335-3.78279 9.54767-2.67755 14.512a38.43857 38.43857 0 0 0 5.317 11.85351c-.23826.305-.486.60034-.72421.90529a108.56725 108.56725 0 0 0 -11.33163 17.952 45.13222 45.13222 0 0 0 -2.69445-20.963c-2.57905-6.22169-7.41311-11.46162-11.67007-16.84027-5.1133-6.46057-15.5986-3.641-16.49946 4.54876q-.01306.11893-.02554.23781.94846.53507 1.85684 1.13583a4.54119 4.54119 0 0 1 -1.83091 8.26411l-.0926.0143a45.18422 45.18422 0 0 0 1.191 6.7558 46.52269 46.52269 0 0 0 23.164 29.15748c.37163.19055.73377.3811 1.1054.56218a110.81472 110.81472 0 0 0 -5.96492 28.07119 105.10444 105.10444 0 0 0 .07617 16.97048l-.0286-.20012a27.77289 27.77289 0 0 0 -9.481-16.0366c-7.29612-5.99352-17.60417-8.20057-25.47539-13.01818a5.21218 5.21218 0 0 0 -7.983 5.07064q.01582.10518.03219.21036a30.50849 30.50849 0 0 1 3.42072 1.64839q.94845.53519 1.85684 1.13583a4.54124 4.54124 0 0 1 -1.83091 8.26418l-.09268.01422c-.06668.00956-.12388.01912-.19048.02868a45.22356 45.22356 0 0 0 8.3184 13.02551 46.564 46.564 0 0 0 33.76931 14.817h.00956a110.783 110.783 0 0 0 7.44186 21.72517h26.58469c.09536-.29539.18107-.60033.26687-.89572a30.20527 30.20527 0 0 1 -7.35614-.43823c1.97245-2.42032 3.94482-4.85967 5.91727-7.27991a1.65238 1.65238 0 0 0 .12388-.14291c1.00048-1.23868 2.01053-2.46788 3.011-3.70656l.00054-.00153a44.24377 44.24377 0 0 0 -1.29641-11.27084zm-30.443-59.88665.014-.01888-.014.03792zm-5.8886 53.08374-.22871-.51447c.00956-.37163.00956-.74325 0-1.12436 0-.10491-.019-.20967-.019-.31451.08572.65746.16195 1.315.25723 1.97245z" fill="#ccc" transform="translate(-169.93432 -174.1294)"/><path d="m966.47418 307.5955h-199.23283a1.64925 1.64925 0 0 1 0-3.2977h199.23283a1.64925 1.64925 0 0 1 0 3.2977z" fill="#cacaca" transform="translate(-169.93432 -174.1294)"/><ellipse cx="607.93675" cy="120.44623" fill="#3f3d56" rx="4.8462" ry="4.95421"/><ellipse cx="624.67818" cy="120.44623" fill="#3f3d56" rx="4.8462" ry="4.95421"/><ellipse cx="641.41961" cy="120.44623" fill="#3f3d56" rx="4.8462" ry="4.95421"/><g transform="translate(-169.93432 -174.1294)"><path d="m958.68675 291.5355h-10.84512a.82133.82133 0 0 0 0 1.64234h10.84512a.82133.82133 0 0 0 0-1.64234z" fill="#3f3d56"/><path d="m958.68675 294.61792h-10.84512a.82133.82133 0 0 0 0 1.64234h10.84512a.82133.82133 0 0 0 0-1.64234z" fill="#3f3d56"/><path d="m958.68675 297.69629h-10.84512a.82133.82133 0 0 0 0 1.64234h10.84512a.82133.82133 0 0 0 0-1.64234z" fill="#3f3d56"/><path d="m635.43274 458.89724h-115.51a6.16309 6.16309 0 0 0 -6.15377 6.16965v182.4718h127.83342v-182.4718a6.16641 6.16641 0 0 0 -6.16965-6.16965zm-57.36639 103.67825a13.70383 13.70383 0 0 1 -13.63984-13.63975v-21.04654a13.6398 13.6398 0 0 1 27.27959 0v21.04654a13.70363 13.70363 0 0 1 -13.63975 13.63975z" fill="#e6e6e6"/><path d="m513.37246 641.70214v17.60486a3.44873 3.44873 0 0 0 3.44174 3.44164h121.743a3.459 3.459 0 0 0 3.44164-3.44164v-17.6049z" fill="#ccc"/><path d="m826.70694 174.1294h-493.76025a16.02852 16.02852 0 0 0 -16.003 16.00291v333.1915a16.01831 16.01831 0 0 0 16.003 16.00291h493.76025a16.0183 16.0183 0 0 0 16.003-16.00291v-333.1915a16.02851 16.02851 0 0 0 -16.003-16.00291z" fill="#e6e6e6"/><path d="m822.58545 185.68807h-485.51345a8.577 8.577 0 0 0 -8.55836 8.57616v324.933a8.57312 8.57312 0 0 0 8.55836 8.55835h485.51345a8.57312 8.57312 0 0 0 8.55836-8.55835v-324.933a8.577 8.577 0 0 0 -8.55836-8.57616z" fill="#fff"/><path d="m831.14381 194.26423v324.933a8.57312 8.57312 0 0 1 -8.55836 8.55835h-171.20285a210.0918 210.0918 0 0 1 -45.83429-61.67q-1.12107-2.242-2.13516-4.53716a208.22672 208.22672 0 0 1 -18.50461-71.22483c-.12456-1.51234-.23132-3.0248-.30245-4.555-.23131-3.91445-.33807-7.88222-.33807-11.8678a209.12838 209.12838 0 0 1 14.75024-77.41671c.58719-1.53016 1.2099-3.04261 1.85052-4.555a210.6655 210.6655 0 0 1 100.26266-106.24101h121.454a8.577 8.577 0 0 1 8.55837 8.57616z" fill="#8b5cf6"/><path d="m798.17952 230.45658h-454.293a1.807 1.807 0 0 1 0-3.61318h454.293a1.807 1.807 0 0 1 0 3.61318z" fill="#cacaca"/></g><ellipse cx="204.8765" cy="32.66644" fill="#3f3d56" rx="10.58751" ry="10.82345"/><ellipse cx="241.45152" cy="32.66644" fill="#3f3d56" rx="10.58751" ry="10.82345"/><ellipse cx="278.02654" cy="32.66644" fill="#3f3d56" rx="10.58751" ry="10.82345"/><path d="m776.15825 198.65509h-25.981a1.96761 1.96761 0 0 0 0 3.93445h25.981a1.96761 1.96761 0 0 0 0-3.93445z" fill="#3f3d56" transform="translate(-169.93432 -174.1294)"/><path d="m776.15825 206.03946h-25.981a1.96761 1.96761 0 0 0 0 3.93445h25.981a1.96761 1.96761 0 0 0 0-3.93445z" fill="#3f3d56" transform="translate(-169.93432 -174.1294)"/><path d="m776.15825 213.41413h-25.981a1.96761 1.96761 0 0 0 0 3.93445h25.981a1.96761 1.96761 0 0 0 0-3.93445z" fill="#3f3d56" transform="translate(-169.93432 -174.1294)"/><rect fill="#8b5cf6" height="15.44057" rx="4.33898" width="72.2068" x="245.18323" y="161.87055"/><rect fill="#e6e6e6" height="15.44057" rx="4.33898" width="145.54953" x="208.51186" y="192.75169"/><rect fill="#e6e6e6" height="15.44057" rx="4.33898" width="145.54953" x="208.51186" y="223.63284"/><path d="m390.326 509.12653a53.04966 53.04966 0 0 1 -3.34507 18.62906h-49.90893a8.57312 8.57312 0 0 1 -8.55836-8.55835v-62.77312a52.71645 52.71645 0 0 1 8.4338-.67613 53.37521 53.37521 0 0 1 53.37856 53.37854z" fill="#8b5cf6" transform="translate(-169.93432 -174.1294)"/><path d="m831.58863 296.48417v-4.555h-76.34907v-52.79131h-4.53726v52.79135h-87.50522v-52.79135h-4.53716v52.79135h-57.79114c-.64062 1.51235-1.26333 3.0248-1.85052 4.555h59.64166v89.28451h-74.05383c.07113 1.53016.17789 3.04262.30245 4.555h73.75138v71.22483h-55.24677q1.0142 2.29524 2.13516 4.53716h53.11161v59.87279h4.53716v-59.87287h87.50522v59.87287h4.53726v-59.87287h76.34907v-4.53716h-76.34907v-.00007a71.22476 71.22476 0 0 1 71.22476-71.22476h5.12431v-4.555h-76.34907v-89.28447zm-80.88633 165.0643h-87.50522v-71.22483h87.50522zm0-75.77979h-87.50522v-1.77937a87.50514 87.50514 0 0 1 87.50513-87.50514h.00009z" opacity=".2" transform="translate(-169.93432 -174.1294)"/><path d="m770.11592 494.045a4.75474 4.75474 0 0 1 -3.44595-8.24114c.11989-.47653.2059-.81872.32579-1.29526q-.06434-.15557-.12945-.31092c-4.3774-10.43787-19.21288-10.36587-23.553.08754-3.85222 9.27793-8.75677 18.57172-9.96439 28.38157a37.774 37.774 0 0 0 .66308 12.99121 151.44445 151.44445 0 0 1 -13.77632-62.89974 146.17434 146.17434 0 0 1 .90669-16.30689q.75112-6.65814 2.08412-13.22149a153.19922 153.19922 0 0 1 30.38077-64.92967 40.77066 40.77066 0 0 0 16.95642-17.59248 31.09956 31.09956 0 0 0 2.82835-8.49852c-.82546.10827-1.66449.17593-2.49.23-.25716.01347-.52779.027-.785.04062l-.097.00434a4.71086 4.71086 0 0 1 -3.86895-7.67479q.53463-.658 1.06992-1.31525c.54136-.67668 1.09619-1.33978 1.63745-2.01635a2.34649 2.34649 0 0 0 .17593-.20308c.6226-.77138 1.245-1.52918 1.86758-2.30056a13.62216 13.62216 0 0 0 -4.46581-4.31681c-6.23857-3.65381-14.84536-1.12324-19.35178 4.51989-4.51989 5.643-5.37239 13.55977-3.8027 20.61023 1.33989 6.0356 4.26283 11.57046 7.55131 16.83457-.33839.43309-.69025.85261-1.02854 1.2857a154.18847 154.18847 0 0 0 -16.09338 25.49578 64.09776 64.09776 0 0 0 -3.8267-29.77208c-3.66283-8.83615-10.52823-16.278-16.574-23.91685-7.262-9.17541-22.15342-5.171-23.43282 6.46023q-.01857.16892-.03627.33774 1.347.75992 2.6371 1.61313a6.44947 6.44947 0 0 1 -2.60029 11.73683l-.13151.02031a64.1738 64.1738 0 0 0 1.69153 9.59471 66.07241 66.07241 0 0 0 32.89788 41.41c.52779.27063 1.04211.54126 1.56991.79842a157.38053 157.38053 0 0 0 -8.47148 39.86721 149.27026 149.27026 0 0 0 .10827 24.10169l-.04061-.28421a39.44359 39.44359 0 0 0 -13.46508-22.77547c-10.36207-8.5121-25.00175-11.64659-36.1806-18.48864-5.38119-3.29359-12.27678.96262-11.33762 7.20141q.02248.14937.04572.29875a43.32841 43.32841 0 0 1 4.85817 2.34107q1.347.76008 2.63711 1.61313a6.44955 6.44955 0 0 1 -2.60029 11.73694l-.13162.0202c-.0947.01357-.17593.02715-.27052.04072a64.22737 64.22737 0 0 0 11.81393 18.49907 66.131 66.131 0 0 0 47.95979 21.04332h.01357a157.33552 157.33552 0 0 0 10.56907 30.85448h37.756c.13542-.41952.25716-.85261.379-1.27213a42.89713 42.89713 0 0 1 -10.44733-.62238c2.80131-3.43737 5.60251-6.90179 8.40382-10.33905a2.34409 2.34409 0 0 0 .17593-.203c1.42091-1.7592 2.85539-3.50492 4.2763-5.26412l.00076-.00217a62.83569 62.83569 0 0 0 -1.84119-16.007zm-43.23573-85.05208.01987-.02682-.01987.05386zm-8.3631 75.39047-.32482-.73065c.01358-.5278.01358-1.05559 0-1.59684 0-.149-.027-.29778-.027-.44667.12174.93373.23 1.86758.36533 2.80131z" fill="#2f2e41" transform="translate(-169.93432 -174.1294)"/><path d="m433.9109 405.74122v-50.74339a29.36884 29.36884 0 0 0 -29.36884-29.36883h-107.50674a29.36886 29.36886 0 0 0 -29.36886 29.36886v278.382a29.36883 29.36883 0 0 0 29.36883 29.36883h107.5068a29.36878 29.36878 0 0 0 29.36878-29.36878v-191.51871a1.8523 1.8523 0 0 0 1.8523-1.8523v-32.41537a1.8523 1.8523 0 0 0 -1.85227-1.85231z" fill="#e6e6e6" transform="translate(-169.93432 -174.1294)"/><path d="m427.66059 355.19941v277.98a21.91853 21.91853 0 0 1 -21.69 21.92 1.92592 1.92592 0 0 1 -.24006.01h-108.03a21.93206 21.93206 0 0 1 -21.93-21.93v-277.98a21.932 21.932 0 0 1 21.93-21.93h13.11a10.42747 10.42747 0 0 0 9.65 14.36h61.59a10.43506 10.43506 0 0 0 9.64-14.36h14.04a21.932 21.932 0 0 1 21.93006 21.93z" fill="#fff" transform="translate(-169.93432 -174.1294)"/><path d="m406.24054 646.52937q0 4.32-.26995 8.57a1.92592 1.92592 0 0 1 -.24006.01h-108.03a21.93206 21.93206 0 0 1 -21.93-21.93v-123.88a137.38836 137.38836 0 0 1 130.47001 137.23z" fill="#f2f2f2" transform="translate(-169.93432 -174.1294)"/><path d="m268.26056 434.129a2.50295 2.50295 0 0 1 -2.5-2.5v-17a2.5 2.5 0 0 1 5 0v17a2.50294 2.50294 0 0 1 -2.5 2.5z" fill="#e6e6e6" transform="translate(-169.93432 -174.1294)"/><rect fill="#8b5cf6" height="15.44057" rx="4.33898" width="35.2068" x="164.17787" y="246.42571"/><rect fill="#e6e6e6" height="15.44057" rx="4.33898" width="108.54953" x="127.5065" y="277.30686"/><rect fill="#e6e6e6" height="15.44057" rx="4.33898" width="108.54953" x="127.5065" y="308.18801"/><path d="m377.62087 639.29011a2.23124 2.23124 0 0 1 -1.61707-3.86729l.15289-.60782q-.0302-.073-.06075-.14591a5.99185 5.99185 0 0 0 -11.05266.04108c-1.80772 4.35382-4.10926 8.71509-4.67595 13.31852a17.726 17.726 0 0 0 .31117 6.09636 71.06775 71.06775 0 0 1 -6.46477-29.51675 68.59517 68.59517 0 0 1 .42548-7.65228q.35248-3.12444.978-6.2044a71.89124 71.89124 0 0 1 14.25668-30.46933 19.13236 19.13236 0 0 0 7.95709-8.25556 14.5946 14.5946 0 0 0 1.32725-3.98808c-.38736.05081-.7811.08256-1.16846.10794-.12067.00632-.24767.01269-.36835.01906l-.04551.002a2.21065 2.21065 0 0 1 -1.81556-3.60153q.25088-.30874.50207-.61719c.25405-.31755.51441-.62872.7684-.94621a1.10093 1.10093 0 0 0 .08256-.0953c.29217-.362.58423-.7176.87639-1.07958a6.39241 6.39241 0 0 0 -2.09565-2.02573c-2.92755-1.71461-6.96643-.5271-9.08115 2.121-2.121 2.64808-2.52108 6.36315-1.78448 9.67169a25.618 25.618 0 0 0 3.54358 7.89991c-.15879.20323-.32391.4001-.48266.60334a72.355 72.355 0 0 0 -7.55208 11.96431 30.07892 30.07892 0 0 0 -1.79575-13.971c-1.71884-4.14651-4.94055-7.63872-7.77764-11.22338a6.17381 6.17381 0 0 0 -10.99625 3.03157q-.00871.07928-.017.15849.6321.35661 1.23751.757a3.02652 3.02652 0 0 1 -1.22023 5.5077l-.06172.00953a30.11472 30.11472 0 0 0 .79378 4.50248 31.0056 31.0056 0 0 0 15.43788 19.43232c.24767.127.489.254.7367.37467a73.85346 73.85346 0 0 0 -3.97538 18.70835 70.04857 70.04857 0 0 0 .05081 11.31012l-.01906-.13337a18.50952 18.50952 0 0 0 -6.31871-10.68777c-4.86257-3.99444-11.73249-5.46535-16.97835-8.6761a3.47371 3.47371 0 0 0 -5.32036 3.37938l.02145.14019a20.33344 20.33344 0 0 1 2.27978 1.09859q.6321.35668 1.23751.757a3.02655 3.02655 0 0 1 -1.22024 5.50775l-.06176.00948c-.04444.00637-.08256.01274-.127.01911a30.1398 30.1398 0 0 0 5.54389 8.681 31.03308 31.03308 0 0 0 22.50593 9.87493h.00637a73.83125 73.83125 0 0 0 4.95971 14.479h17.71765c.06355-.19686.12068-.4001.17786-.597a20.13045 20.13045 0 0 1 -4.90258-.29207c1.31456-1.613 2.62907-3.23878 3.94363-4.85177a1.10052 1.10052 0 0 0 .08256-.09525c.66678-.82553 1.33994-1.64474 2.00672-2.47027l.00036-.001a29.48674 29.48674 0 0 0 -.864-7.51157zm-20.28909-39.91211.00933-.01259-.00933.02527zm-3.92452 35.37823-.15243-.34287c.00638-.24768.00638-.49535 0-.74935 0-.06992-.01268-.13974-.01268-.2096.05712.43817.10793.87639.17143 1.31456z" fill="#ccc" transform="translate(-169.93432 -174.1294)"/><path d="m267.76056 401.129a2.50295 2.50295 0 0 1 -2.5-2.5v-17a2.5 2.5 0 0 1 5 0v17a2.50294 2.50294 0 0 1 -2.5 2.5z" fill="#e6e6e6" transform="translate(-169.93432 -174.1294)"/><path d="m334.26056 336.129a2.50295 2.50295 0 0 1 2.5-2.5h17a2.5 2.5 0 0 1 0 5h-17a2.50295 2.50295 0 0 1 -2.5-2.5z" fill="#fff" transform="translate(-169.93432 -174.1294)"/><path d="m268.26056 463.129a2.50295 2.50295 0 0 1 -2.5-2.5v-17a2.5 2.5 0 0 1 5 0v17a2.50294 2.50294 0 0 1 -2.5 2.5z" fill="#e6e6e6" transform="translate(-169.93432 -174.1294)"/><circle cx="193.32625" cy="161.99959" fill="#fff" r="2.5"/><path d="m1028.875 662.74206-857.75.30734a1.19069 1.19069 0 0 1 0-2.38137l857.75-.30733a1.19068 1.19068 0 0 1 0 2.38136z" fill="#cacaca" transform="translate(-169.93432 -174.1294)"/><path d="m536.70774 400.23565-4.51178.96682a25.97456 25.97456 0 0 0 -.70141-5.60184 16.82138 16.82138 0 0 1 -2.54029 6.29376l-25.87636 5.526-24.84317-26.21763c-.038-13.10875 7.24154-23.07069 20.29349-23.07069.78673 0 1.60187.03789 2.4265.11374a27.60423 27.60423 0 0 1 31.60142 21.69635c9.25099 9.10884 5.89562 14.46417 4.1516 20.29349z" fill="#2f2e41" transform="translate(-169.93432 -174.1294)"/><path d="m379.495 532.711h9.386l4.466-36.205-13.854.001z" fill="#ffb6b6"/><path d="m547.1016 702.21 14.83766-.8856v6.35709l14.10658 9.74251a3.97089 3.97089 0 0 1 -2.25639 7.23856h-17.66479l-3.04479-6.28815-1.18884 6.28815h-6.66033z" fill="#2f2e41" transform="translate(-169.93432 -174.1294)"/><path d="m269.531 522.494 8.164 4.632 21.75-29.285-12.049-6.836z" fill="#ffb6b6"/><path d="m439.7257 691.44757 13.34209 6.552-3.13719 5.52908 7.46132 15.43505a3.97088 3.97088 0 0 1 -5.53467 5.18221l-15.36394-8.71746.45495-6.9717-4.13716 4.88243-5.79281-3.28683z" fill="#2f2e41" transform="translate(-169.93432 -174.1294)"/><path d="m584.12407 406.57845a8.31273 8.31273 0 0 0 -6.70007 10.84355l-14.363 12.43183 5.426 10.571 20.03683-17.841a8.35777 8.35777 0 0 0 -4.39963-16.00537z" fill="#ffb6b6" transform="translate(-169.93432 -174.1294)"/><path d="m569.66026 449.32863c-4.79112 7.25634-15.529 14.2643-31.46542 20.47709a6.83906 6.83906 0 0 1 -5.49825-.17967c-6.014-2.73707-9.86837-12.91192-10.23019-13.89889l-11.64788-15.7126c-.20677-.22889-5.65354-6.4106-5.03056-12.48783a8.87668 8.87668 0 0 1 3.82279-6.36192c8.81731-6.53644 28.57855 16.165 31.14284 19.1833l12.89683-7.85786 9.39728-4.19259 7.586-9.23085 10.6813 10.92051-9.6065 15.28305a18.4177 18.4177 0 0 1 -2.04824 4.05826z" fill="#2f2e41" transform="translate(-169.93432 -174.1294)"/><path d="m536.16214 477.16877s27.59842 43.96063 22.59842 48.96063-12.78065 6.313-12.78065 6.313l-17.21935-22.313z" fill="#2f2e41" transform="translate(-169.93432 -174.1294)"/><path d="m511.76056 417.1294 13.0073 8.79906a33.552 33.552 0 0 1 13.07194 38.27628l-3.66191 11.13047z" fill="#2f2e41" transform="translate(-169.93432 -174.1294)"/><path d="m318.826 363-1.739 6.057-5.934 73.041-29.646 55.25 14.149 10.106 40.427-52.555 15.99-52.183 25.111 115.519 18.866-1.348-13.103-160.165-24.863-45.083z" fill="#2f2e41"/><path d="m509.54846 419.342 18.10354 14.79514a24.65484 24.65484 0 0 1 8.18435 12.60337 24.65458 24.65458 0 0 1 .86527 6.901l-.53945 32.12721 16.59842 44.36063s-45 17-51 2 7.78787-112.78735 7.78787-112.78735z" fill="#8b5cf6" transform="translate(-169.93432 -174.1294)"/><path d="m514.9631 539.91579c-22.48009 0-27.95872.16916-28.31367.09731l-.35559-.07186v-13.52091l5.46672-24.29093c-.63882-7.54134-2.13556-17.48536-2-26 .49-30.77524-1.02286-60.83726-1.02286-60.83726l11.89811-10.9826 5.40519 3.51746 10.02641 10.026c11.6544 28.68151 20.90231 55.68351 20.96053 57.41842l.73265 29.858-3 12c-13.57137 9.58011-1.17117 22.78637-19.79749 22.78637z" fill="#2f2e41" transform="translate(-169.93432 -174.1294)"/><path d="m323.846 267.973-2.733 17.058 18.501 7.631z" opacity=".2"/><circle cx="342.48363" cy="208.86652" fill="#ffb6b6" r="18.11367"/><path d="m482.06684 474.90258a33.27248 33.27248 0 0 0 39.93954 8.07283l3.94238-1.95109z" opacity=".2" transform="translate(-169.93432 -174.1294)"/><path d="m545.09806 470.73289a8.31267 8.31267 0 0 0 -12.74075.38476l-18.289-5.13434-5.83084 10.35316 25.92939 6.88793a8.35777 8.35777 0 0 0 10.93117-12.49151z" fill="#ffb6b6" transform="translate(-169.93432 -174.1294)"/><path d="m501.45435 482.2223c-8.69535.00086-20.46057-5.0974-34.42712-14.97187a6.839 6.839 0 0 1 -2.88-4.687c-1.03022-6.52671 5.33612-15.35019 5.96031-16.196l6.69246-18.37855c.077-.29868 2.23379-8.25037 7.64826-11.07957a8.87676 8.87676 0 0 1 7.41538-.316c10.3134 3.75553 2.26019 32.75562 1.15466 36.55876l13.66419 6.43148 8.67717 5.53112 11.88318 1.24319-3.22635 14.93118-18.04692.406a18.41807 18.41807 0 0 1 -4.51522.52726z" fill="#2f2e41" transform="translate(-169.93432 -174.1294)"/><path d="m534.139 371.0797c-1.45024 1.88622-6.44538 3.55444-12.379 4.90038.00949-.12317.00949-.24639.00949-.36962a25.97447 25.97447 0 0 0 -.7014-5.60184 16.82145 16.82145 0 0 1 -2.5403 6.29375c-.09476.14221-.18952.28435-.29383.42655-5.09 1.00472-10.47376 1.782-14.69171 2.30327 2.90042 10.44536 14.01877 19.01392 12.815 25.36454l-32.57768 6.65389a25.53908 25.53908 0 0 0 -.62556-7.86717 16.93373 16.93373 0 0 1 -4.72034 8.95722l-2.76771.56869-.82463-4.06627c-7.14679-17.16559 2.81509-34.73875 19.13714-43.82868a19.84012 19.84012 0 0 1 12.56853-8.43591l4.06627-.83412a19.93427 19.93427 0 0 1 23.52573 15.53532z" fill="#2f2e41" transform="translate(-169.93432 -174.1294)"/><path d="m611.96139 699.46589.48173-10.83182a34.9833 34.9833 0 0 1 16.31744-4.13057c-7.837 6.4073-6.8576 18.75842-12.17087 27.37474a21.04264 21.04264 0 0 1 -15.43077 9.72408l-6.55827 4.01542a35.26073 35.26073 0 0 1 7.43207-28.57312 34.06013 34.06013 0 0 1 6.25957-5.81618c1.57071 4.14168 3.6691 8.23745 3.6691 8.23745z" fill="#f2f2f2" transform="translate(-169.93432 -174.1294)"/><path d="m627.861 725.8706h-228.382a1.19069 1.19069 0 0 1 0-2.38137h228.382a1.19069 1.19069 0 1 1 0 2.38137z" fill="#cacaca" transform="translate(-169.93432 -174.1294)"/></svg>