<svg height="658" viewBox="0 0 729 658" width="729" xmlns="http://www.w3.org/2000/svg"><path d="m0 93h298v168h-298z" fill="#6c63ff"/><path d="m535.31443 392.74227h-300v-170h300zm-298-2h296v-166h-296z" fill="#3f3d56" transform="translate(-215.31443 -146.74227)"/><path d="m409 17h298v168h-298z" fill="#f2f2f2"/><g transform="translate(-215.31443 -146.74227)"><path d="m944.31443 316.74227h-300v-170h300zm-298-2h296v-166h-296z" fill="#3f3d56"/><path d="m727.42861 804.74227h-381a1 1 0 1 1 0-2h381a1 1 0 1 1 0 2z" fill="#ccc"/><path d="m584.94579 568.47455a12.38034 12.38034 0 0 1 15.11512-11.48555l16.372-23.07272 16.44782 6.5295-23.57812 32.25841a12.44744 12.44744 0 0 1 -24.35686-4.22968z" fill="#a0616a"/><path d="m602.90561 548.632 29.109-48.95706-11.85961-31.62547 16.15228-43.07395.59568.25555c.39058.16734 9.56836 4.26281 10.92858 18.92951l18.56189 58.33693-49.53915 64.26717z" fill="#3f3d56"/><path d="m444.813 368.65055a12.3803 12.3803 0 0 1 10.28248 15.9579l21.73782 18.10693-7.78163 15.89375-30.33887-26.00164a12.44745 12.44745 0 0 1 6.1002-23.95694z" fill="#a0616a"/><path d="m463.2075 388.09077 46.55991 32.807 32.44778-9.37889 41.69617 19.43425-.30084.57414c-.197.37647-4.98984 9.21014-19.7178 9.43231l-59.59745 13.99592-60.2446-54.35977z" fill="#3f3d56"/></g><path d="m333.089 640.297h-16.186l-7.701-62.434 23.89.001z" fill="#a0616a"/><path d="m300.57258 635.67157h35.985a0 0 0 0 1 0 0v19.655a0 0 0 0 1 0 0h-50.87186a0 0 0 0 1 0 0v-4.76818a14.88686 14.88686 0 0 1 14.88686-14.88682z" fill="#2f2e41"/><path d="m397.784 640.297h-16.187l-7.7-62.434 23.889.001z" fill="#a0616a"/><path d="m365.26694 635.67157h35.985a0 0 0 0 1 0 0v19.655a0 0 0 0 1 0 0h-50.87186a0 0 0 0 1 0 0v-4.76818a14.88686 14.88686 0 0 1 14.88686-14.88682z" fill="#2f2e41"/><path d="m403.54 412.407-1.32 92.421-1.32 121.467-29.047-2.641-14.523-167.677-18.484 167.677h-29.987l-3.02-168.997 10.562-36.969z" fill="#2f2e41"/><path d="m528.82027 564.99455-4.425-.19151 20.55373-113.22725-8.41566-34.22331a7.48958 7.48958 0 0 1 4.6419-8.79869l15.14186-5.6777 5.34935-14.71141 42.20641 4.548 1.03789 11.49732c4.57364 1.46685 42.23691 14.01 39.63821 28.30213-2.56488 14.10666-17.70915 58.48857-18.47822 60.73778l-2.65217 63.64914-.32624.16311c-.39269.19635-29.48413 14.50056-61.08849 14.49815-11.12946-.00058-22.577-1.77554-33.18357-6.56576z" fill="#3f3d56" transform="translate(-215.31443 -146.74227)"/><circle cx="581.11565" cy="350.49552" fill="#a0616a" r="30.38881" transform="matrix(.47965987 -.8774545 .8774545 .47965987 -220.48051 545.53717)"/><path d="m605.73047 379.91276c-5.79138 6.16906-16.54677 2.85737-17.30139-5.57045a10.18165 10.18165 0 0 1 .01281-1.96632c.38963-3.73316 2.54637-7.12242 2.02975-11.06411a5.80213 5.80213 0 0 0 -1.06186-2.71612c-4.615-6.17988-15.44834 2.7641-19.80382-2.83036-2.67068-3.43039.46868-8.83137-1.58076-12.66542-2.70493-5.06032-10.71679-2.56405-15.74108-5.33533-5.59013-3.08338-5.25578-11.66024-1.576-16.87713 4.48768-6.36221 12.356-9.75708 20.12633-10.24635s15.48707 1.61122 22.74136 4.4383c8.24232 3.21213 16.41577 7.65133 21.488 14.89884 6.16835 8.81374 6.762 20.663 3.67705 30.969-1.87657 6.26923-8.28111 13.92775-13.01039 18.96545z" fill="#2f2e41" transform="translate(-215.31443 -146.74227)"/></svg>