<svg height="625.36797" viewBox="0 0 654.26041 625.36797" width="654.26041" xmlns="http://www.w3.org/2000/svg"><path d="m402.99376 617.91758-119.71359-55.12839a17.9174 17.9174 0 0 1 -8.77028-23.74249l15.42263-33.49087a17.91763 17.91763 0 0 1 23.74248-8.77028l119.71359 55.12845a17.91763 17.91763 0 0 1 8.77028 23.74248l-15.42262 33.49082a17.91739 17.91739 0 0 1 -23.74249 8.77028z" fill="#f2f2f2" transform="translate(-272.8698 -137.31601)"/><path d="m384.35411 596.62549-72.77755-33.51423a10.1929 10.1929 0 0 1 -4.98926-13.50669l12.2207-26.53767a10.193 10.193 0 0 1 13.50669-4.98926l72.77755 33.51424a10.193 10.193 0 0 1 4.98926 13.50669l-12.2207 26.53766a10.19288 10.19288 0 0 1 -13.50669 4.98926z" fill="#fff" transform="translate(-272.8698 -137.31601)"/><path d="m383.93593 597.534-72.77758-33.51425a11.19406 11.19406 0 0 1 -5.4794-14.83356l12.22046-26.53719a11.19405 11.19405 0 0 1 14.83356-5.47939l72.77758 33.51425a11.19364 11.19364 0 0 1 5.47895 14.83335l-12.2205 26.53723a11.19363 11.19363 0 0 1 -14.83307 5.47956zm-52.03953-78.5478a9.19207 9.19207 0 0 0 -12.18035 4.49933l-12.22046 26.53727a9.19206 9.19206 0 0 0 4.49932 12.18035l72.77758 33.51425a9.192 9.192 0 0 0 12.17992-4.49953l12.22045-26.53723a9.192 9.192 0 0 0 -4.49888-12.18015z" fill="#3f3d56" transform="translate(-272.8698 -137.31601)"/><path d="m363.31419 556.23331-.40208-.18516a1.77069 1.77069 0 1 1 1.48129-3.21669l.40208.18516a1.77069 1.77069 0 0 1 -1.48129 3.21669z" fill="#ccc" transform="translate(-272.8698 -137.31601)"/><path d="m380.55119 574.89276-22.11472-10.18388a1.77069 1.77069 0 1 1 1.48129-3.21669l22.11472 10.18388a1.77069 1.77069 0 1 1 -1.48129 3.21669z" fill="#ccc" transform="translate(-272.8698 -137.31601)"/><circle cx="69.64552" cy="412.75083" fill="#8b5cf6" r="11.87196"/><path d="m886.70008 564.46909h-444.73139a40.47562 40.47562 0 0 1 -40.43013-40.43009v-346.29286a40.47618 40.47618 0 0 1 40.43013-40.43014h444.73139a40.47617 40.47617 0 0 1 40.43012 40.43013v346.29287a40.47562 40.47562 0 0 1 -40.43012 40.43009z" fill="#f2f2f2" transform="translate(-272.8698 -137.31601)"/><path d="m790.83438 495.39255h-253a23.02588 23.02588 0 0 1 -23-23v-243a23.02619 23.02619 0 0 1 23-23h253a23.02619 23.02619 0 0 1 23 23v243a23.02588 23.02588 0 0 1 -23 23z" fill="#fff" transform="translate(-272.8698 -137.31601)"/><path d="m790.83438 495.39255h-253a23.02588 23.02588 0 0 1 -23-23v-243a23.02619 23.02619 0 0 1 23-23h253a23.02619 23.02619 0 0 1 23 23v243a23.02588 23.02588 0 0 1 -23 23zm-253-287a21.02359 21.02359 0 0 0 -21 21v243a21.0239 21.0239 0 0 0 21 21h253a21.0239 21.0239 0 0 0 21-21v-243a21.02359 21.02359 0 0 0 -21-21z" fill="#3f3d56" transform="translate(-272.8698 -137.31601)"/><path d="m661.04664 294.92933h-42.49664a4.05826 4.05826 0 1 1 0-8.11651h42.49665a4.05826 4.05826 0 0 1 0 8.11651z" fill="#8b5cf6" transform="translate(-272.8698 -137.31601)"/><path d="m756.04664 455.92933h-42.49664a4.05826 4.05826 0 1 1 0-8.11651h42.49665a4.05826 4.05826 0 0 1 0 8.11651z" fill="#8b5cf6" transform="translate(-272.8698 -137.31601)"/><path d="m756.31006 311.52769h-137.76006a4.05825 4.05825 0 1 1 0-8.1165h137.76006a4.05825 4.05825 0 0 1 0 8.1165z" fill="#e6e6e6" transform="translate(-272.8698 -137.31601)"/><circle cx="310.68247" cy="160.79132" fill="#8b5cf6" r="12.25155"/><circle cx="269.68247" cy="98.79132" fill="#f2f2f2" r="12.25155"/><path d="m581.8809 304.48375a1.36241 1.36241 0 0 1 -1.09012-.54523l-3.34238-4.45661a1.36279 1.36279 0 1 1 2.18052-1.63526l2.18667 2.9154 5.61629-8.42434a1.36286 1.36286 0 0 1 2.27337 1.50376l-.00545.00817-6.6848 10.02722a1.36356 1.36356 0 0 1 -1.09613.60648z" fill="#fff" transform="translate(-272.8698 -137.31601)"/><path d="m756.31006 355.52769h-137.76006a4.05825 4.05825 0 1 1 0-8.1165h137.76006a4.05825 4.05825 0 0 1 0 8.1165z" fill="#e6e6e6" transform="translate(-272.8698 -137.31601)"/><path d="m583.55234 364.35883a13.25147 13.25147 0 1 1 13.25147-13.25147 13.26678 13.26678 0 0 1 -13.25147 13.25147zm0-24.50293a11.25147 11.25147 0 1 0 11.25147 11.25146 11.26417 11.26417 0 0 0 -11.25147-11.25146z" fill="#e6e6e6" transform="translate(-272.8698 -137.31601)"/><path d="m661.04664 400.92933h-42.49664a4.05826 4.05826 0 1 1 0-8.11651h42.49665a4.05826 4.05826 0 0 1 0 8.11651z" fill="#e6e6e6" transform="translate(-272.8698 -137.31601)"/><path d="m756.31006 417.52769h-137.76006a4.05825 4.05825 0 1 1 0-8.1165h137.76006a4.05825 4.05825 0 0 1 0 8.1165z" fill="#e6e6e6" transform="translate(-272.8698 -137.31601)"/><path d="m583.55234 417.35932a13.252 13.252 0 1 1 13.25147-13.252 13.26657 13.26657 0 0 1 -13.25147 13.252zm0-24.50391a11.252 11.252 0 1 0 11.25147 11.252 11.26459 11.26459 0 0 0 -11.25147-11.252z" fill="#e6e6e6" transform="translate(-272.8698 -137.31601)"/><path d="m548.121 235.11984h-9.01l3.4182-3.494a.84513.84513 0 1 0 -1.20833-1.18192l-4.82261 4.92949a.84478.84478 0 0 0 0 1.18192l4.82261 4.9299a.84513.84513 0 0 0 1.20833-1.18192l-3.41706-3.49315h9.00886a.84518.84518 0 0 0 0-1.69035z" fill="#3f3d56" transform="translate(-272.8698 -137.31601)"/><path d="m183.393 612.928 9.901-.001 4.71-38.19-14.613.001z" fill="#a0616a"/><path d="m455.91386 760.57241 30.447-.00116v-.385a11.85149 11.85149 0 0 0 -11.85083-11.85065h-.00074l-5.56152-4.21924-10.37659 4.21991-2.65783.00006z" fill="#2f2e41" transform="translate(-272.8698 -137.31601)"/><path d="m138.393 612.928 9.901-.001 4.71-38.19-14.613.001z" fill="#a0616a"/><g transform="translate(-272.8698 -137.31601)"><path d="m410.91386 760.57241 30.447-.00116v-.385a11.85149 11.85149 0 0 0 -11.85083-11.85065h-.00074l-5.56152-4.21924-10.37659 4.21991-2.65783.00006z" fill="#2f2e41"/><path d="m480.334 505.05275s16.001 19.84589 12.89861 24.99165-8.10237 3.36339-3.10237 8.75457 7.003 5.45417 3.50151 9.42268-6.54326 90.70866-6.54326 90.70866l-15.95829 90.25984-17.56334 1.58268s-3.27664-11.0315-3.35665-15.30709-.08-.55044-.08-9.413 3.16-1.99643.08-10.4295-6.92-33.27559 0-45.35433 1.48111-1.48111 1.48111-1.48111l-5.36055-81.85747-10.20057 84.25982s0 29-5 50l-.82677 29.58268-21.55053-.82371s-5.6227-8.759-3.6227-18.759-6-15-6-20 .42124-52.82677.42124-52.82677l4.67325-99.56441s-4.09449-22.60882 4.90551-31.60882 71.2038-2.13737 71.2038-2.13737z" fill="#2f2e41"/><path d="m432.65 328.05835 21 1q-.24252 9.19536 10.04211 17.34841l11.438 11.78339 3 26-3 98 17 40c-22.8445 8.92758-49.54606 12.88773-87 3-4.224-4.50464 1.17311-30.76157 3.62829-50.367 0 0 5.31417-8.16786.51681-14.07187s1.8549-42.5611 1.8549-42.5611l2-41c-1.13735-13.26909-10.55544-23.259-.09118-31.4968a60.87675 60.87675 0 0 0 19.61107-17.63503z" fill="#8b5cf6"/><path d="m463.69215 346.40676 14.26849 4.28055 12.12821 29.96382-7.43885 93.40722s-1.49107 5.64972 1.25447 4.82486 1.62644 6.25555 1.62644 6.25555l10.11909 38.91959-96.51984-7.8682 9.62829-41.367s-7.10242.2292-2.10845-4.76477 3.27752-1.96419-1.51984-7.8682a10.35242 10.35242 0 0 1 -1.36568-11.62345l-2.14027-29.25039-3.52846-41.16537a39.55464 39.55464 0 0 1 14.94325-34.45762c14.90013-8.85223 32.16918-6.85226 50.65315.71341z" fill="#3f3d56"/><path d="m381.56685 533.9607a7.74428 7.74428 0 0 1 1.918-10.62994 7.42842 7.42842 0 0 1 1.0646-.61245l-2.60045-26.89189 13.18123-6.12054-.42054 37.2237a7.72281 7.72281 0 0 1 -2.737 9.02236 7.39069 7.39069 0 0 1 -10.29177-1.82328q-.05821-.08319-.11407-.16796z" fill="#a0616a"/><path d="m372.1302 459.06015 10 51 1.19-.08 11.59-.83 1.22-.09-1-46c-2.66-2.71 1.85-11.99 7.77-23.19 2.19-4.13 4.57-8.53 6.86-12.95.41-.79.81-1.58 1.21-2.37a136.12261 136.12261 0 0 0 7.48-16.97l-16.57-47.02-.42-1.2s-3.53 8.42-8.15 20.61q-.52506 1.365-1.05 2.79c-8.82 23.53999-20.71001 58.8-20.13 76.3z" fill="#3f3d56"/><path d="m582.16879 308.99431a7.74427 7.74427 0 0 1 -9.67167 4.80967 7.42955 7.42955 0 0 1 -1.127-.48817l-20.0171 18.1453-12.78095-6.9176 30.10836-21.89218a7.7228 7.7228 0 0 1 8.87137-3.19265 7.39069 7.39069 0 0 1 4.68365 9.34389q-.03203.09632-.06666.19174z" fill="#a0616a"/><path d="m430.241 397.30956s29.712-7.34908 57.24717-17.08137c.72721-.25338 1.44171-.513 2.15625-.77272 15.663-5.63084 30.33254-11.99481 38.07685-18.16532l34.94173-38.47815-.77526-.90087-7.59728-8.7966-.79425-.92613-36.29429 28.27105c-.57987 3.66225-10.26807 5.59-22.40393 7.48117-.67982.111-1.39739.52537-2.07745.31419-11.42053-3.547-24.31909 2.31238-33.94671 6.63345z" fill="#3f3d56"/></g><circle cx="171.22837" cy="162.43051" fill="#a0616a" r="25.11515"/><path d="m427.57016 326.01251c4.20084-1.97317 9.10733-.77408 13.7449-.59158s10.2566-1.56579 11.24059-6.10145c.72757-3.35368-1.45931-7.02948-.08129-10.17235 1.50276-3.42736 6.01334-3.91514 9.63055-4.87479a22.20039 22.20039 0 0 0 16.031-20.78157c.2513 1.87264-2.95295 2.48771-4.00543.91856s-.32758-3.741.83291-5.232 2.72683-2.6818 3.602-4.35632.705-4.16139-1.004-4.96722a13.95558 13.95558 0 0 1 -8.83916 7.271c.77734-2.36129-.32176-5.016-2.09082-6.76248a20.23824 20.23824 0 0 0 -6.38733-3.76143c-5.78933-2.50959-12.549-5.00692-18.15533-2.11143a10.85646 10.85646 0 0 0 -5.61227 7.59694c-10.37064.8769-21.01967 12.11083-20.42937 22.50171.63547 11.18607 1.09919 12.09112 10.41111 30.9148" fill="#2f2e41" transform="translate(-272.8698 -137.31601)"/><path d="m317.6087 762.684.00645-.2959a34.18565 34.18565 0 0 1 12.78307-25.74391 33.16851 33.16851 0 0 1 7.126-4.29412l.24283-.10814.04143.2624c.49308 3.133 1.27392 6.33075 1.63771 7.75l2.43848-9.51513.27094-.07826a6.48339 6.48339 0 0 1 6.92088 2.2112 6.59447 6.59447 0 0 1 .6842 7.35761c-.56839 1.059-1.12708 2.16389-1.66758 3.23236-1.85677 3.67176-3.77672 7.46854-6.5745 10.4183a20.66341 20.66341 0 0 1 -16.66614 6.21714z" fill="#f2f2f2" transform="translate(-272.8698 -137.31601)"/><path d="m557.02407 762.35171-239.75.30733a1.19069 1.19069 0 0 1 0-2.38137l239.75-.30733a1.19068 1.19068 0 1 1 0 2.38137z" fill="#cacaca" transform="translate(-272.8698 -137.31601)"/></svg>